<svg xmlns="http://www.w3.org/2000/svg" viewBox="0 0 147.94 97.98"><defs><style>.cls-2{fill:#0b215d}.cls-3{fill:#0b215c}.cls-4{fill:#0b205c}.cls-5{fill:#0b205b}.cls-6{fill:#0b205a}.cls-7{fill:#0b1f5a}.cls-8{fill:#0b1f59}.cls-9{fill:#0b1f58}.cls-10{fill:#0b1e58}.cls-11{fill:#0b1e57}.cls-13{fill:#0b1d56}.cls-14{fill:#0b1d55}.cls-16{fill:#0b1c54}.cls-17{fill:#0b1c53}.cls-18{fill:#0c1b52}.cls-19{fill:#0c1b51}.cls-21{fill:#0c1a50}.cls-22{fill:#0c1a4f}.cls-24{fill:#0c194e}.cls-25{fill:#0c194d}.cls-26{fill:#0c184d}.cls-27{fill:#0c184c}.cls-28{fill:#0c184b}.cls-29{fill:#0c174b}.cls-30{fill:#0c174a}.cls-31{fill:#0c1749}.cls-32{fill:#0c1649}.cls-33{fill:#0c1648}.cls-34{fill:#00fcf9}</style></defs><path d="M140.79 97H7.08L.93 90.88V7.52l6.15-6.14h133.71l6.14 6.14v83.36z" stroke="#4574d6" stroke-miterlimit="10" stroke-width="1.14" fill="#0b215d"/><path class="cls-2" d="M140.66 96.91H7.21l-6.16-6.16V7.65L7.21 1.5h133.45l6.15 6.15v83.1z"/><path class="cls-2" d="M140.53 96.79H7.34l-6.17-6.16V7.78l6.17-6.17h133.19l6.16 6.17v82.85z"/><path class="cls-2" d="M140.4 96.67H7.47L1.3 90.5V7.9l6.17-6.17H140.4l6.17 6.17v82.6z"/><path class="cls-2" d="M140.27 96.55H7.6l-6.18-6.18V8L7.6 1.85h132.67L146.44 8v82.37z"/><path class="cls-3" d="M140.14 96.44H7.73l-6.19-6.19V8.16L7.73 2h132.41l6.18 6.19v82.06z"/><path class="cls-3" d="M140 96.32H7.86l-6.2-6.2V8.28l6.2-6.19H140l6.19 6.19v81.84z"/><path class="cls-3" d="M139.88 96.2H8L1.78 90V8.41L8 2.21h131.88l6.2 6.2V90z"/><path class="cls-3" d="M139.75 96.08H8.12L1.9 89.87V8.54l6.22-6.22h131.63L146 8.54v81.33z"/><path class="cls-3" d="M139.61 96H8.25L2 89.74V8.66l6.25-6.22h131.36l6.23 6.22v81.08z"/><path class="cls-4" d="M139.48 95.84H8.38l-6.23-6.23V8.79l6.23-6.23h131.1l6.24 6.23v80.82z"/><path class="cls-4" d="M139.35 95.73H8.51l-6.24-6.24V8.92l6.24-6.24h130.84l6.24 6.24v80.57z"/><path class="cls-4" d="M139.22 95.61H8.64l-6.25-6.25V9l6.25-6.2h130.58l6.25 6.2v80.36z"/><path class="cls-4" d="M139.09 95.49H8.77l-6.26-6.26V9.17l6.26-6.25h130.32l6.26 6.25v80.06z"/><path class="cls-4" d="M139 95.37H8.9l-6.27-6.26V9.3L8.9 3H139l6.27 6.27v79.84z"/><path class="cls-5" d="M138.83 95.25H9L2.76 89V9.43L9 3.15h129.8l6.28 6.28V89z"/><path class="cls-5" d="M138.7 95.13H9.16l-6.28-6.28V9.55l6.28-6.28H138.7l6.3 6.28v79.3z"/><path class="cls-5" d="M138.57 95H9.29L3 88.72v-79l6.29-6.33h129.28l6.29 6.29v79z"/><path class="cls-5" d="M138.44 94.9H9.42l-6.3-6.3V9.81l6.3-6.3h129l6.3 6.3V88.6z"/><path class="cls-5" d="M138.31 94.78H9.55l-6.31-6.31V9.93l6.31-6.3h128.76l6.31 6.3v78.54z"/><path class="cls-5" d="M138.18 94.66H9.68l-6.32-6.32V10.06l6.32-6.32h128.5l6.32 6.32v78.28z"/><path class="cls-5" d="M138.05 94.54H9.81l-6.33-6.32v-78l6.33-6.36h128.24l6.33 6.33v78z"/><path class="cls-5" d="M137.92 94.42H9.94l-6.33-6.33V10.31L9.94 4h128l6.34 6.33v77.76z"/><path class="cls-5" d="M137.79 94.3H10.07L3.73 88V10.44l6.34-6.34h127.72l6.34 6.34V88z"/><path class="cls-6" d="M137.66 94.19H10.2l-6.35-6.35V10.57l6.35-6.35h127.46l6.34 6.35v77.27z"/><path class="cls-6" d="M137.53 94.07H10.33L4 87.71v-77l6.36-6.35h127.2l6.36 6.35v77z"/><path class="cls-6" d="M137.4 94H10.46l-6.37-6.42V10.82l6.37-6.37H137.4l6.37 6.37v76.76z"/><path class="cls-6" d="M137.27 93.83H10.59l-6.38-6.37V11l6.38-6.38h126.68l6.38 6.38v76.46z"/><path class="cls-7" d="M137.14 93.71H10.72l-6.38-6.38V11.08l6.38-6.39h126.42l6.39 6.39v76.25z"/><path class="cls-7" d="M137 93.59H10.85L4.46 87.2v-76l6.39-6.39H137l6.4 6.39v76z"/><path class="cls-7" d="M136.88 93.48H11l-6.4-6.41V11.33l6.4-6.4h125.9l6.4 6.4v75.74z"/><path class="cls-7" d="M136.75 93.36H11.11L4.7 87V11.46l6.41-6.41h125.64l6.41 6.41V87z"/><path class="cls-7" d="M136.62 93.24H11.24l-6.42-6.42V11.58l6.42-6.42h125.38l6.38 6.42v75.24z"/><path class="cls-7" d="M136.49 93.12H11.37l-6.43-6.43v-75l6.43-6.43h125.12l6.43 6.43v75z"/><path class="cls-8" d="M136.36 93H11.5l-6.43-6.43V11.84L11.5 5.4h124.86l6.44 6.44v74.73z"/><path class="cls-8" d="M136.23 92.88H11.63l-6.44-6.44V12l6.44-6.44h124.6l6.45 6.44v74.44z"/><path class="cls-8" d="M136.1 92.77H11.76l-6.45-6.46V12.09l6.45-6.45H136.1l6.45 6.45v74.22z"/><path class="cls-8" d="M136 92.65H11.89l-6.46-6.46v-74l6.46-6.46H136l6.46 6.46v74z"/><path class="cls-8" d="M135.84 92.53H12l-6.45-6.47V12.34L12 5.87h123.84l6.47 6.47v73.72z"/><path class="cls-8" d="M135.71 92.41H12.15l-6.48-6.48V12.47L12.15 6h123.56l6.48 6.48v73.45z"/><path class="cls-8" d="M135.58 92.29H12.28L5.8 85.81V12.6l6.48-6.49h123.3l6.49 6.49v73.21z"/><path class="cls-8" d="M135.45 92.17h-123l-6.53-6.49v-73l6.49-6.49h123l6.5 6.49v73z"/><path class="cls-8" d="M135.32 92.06H12.54L6 85.55v-72.7l6.5-6.5h122.82l6.5 6.5v72.7z"/><path class="cls-8" d="M135.19 91.94H12.67l-6.51-6.51V13l6.51-6.51h122.52L141.7 13v72.43z"/><path class="cls-9" d="M135.06 91.82H12.8L6.28 85.3V13.11l6.52-6.52h122.26l6.52 6.52V85.3z"/><path class="cls-9" d="M134.93 91.7h-122L6.4 85.17V13.23l6.53-6.53h122l6.53 6.53v71.94z"/><path class="cls-10" d="M134.8 91.58H13.06L6.52 85V13.36l6.54-6.54H134.8l6.54 6.54V85z"/><path class="cls-10" d="M134.67 91.46H13.19l-6.54-6.54V13.49l6.54-6.55h121.48l6.55 6.55v71.43z"/><path class="cls-10" d="M134.54 91.35H13.32l-6.55-6.56V13.61l6.55-6.55h121.22l6.55 6.55v71.18z"/><path class="cls-10" d="M134.41 91.23h-121l-6.52-6.57V13.74l6.56-6.56h121l6.55 6.56v70.92z"/><path class="cls-10" d="M134.28 91.11H13.58L7 84.54V13.87l6.58-6.57h120.7l6.57 6.57v70.67z"/><path class="cls-10" d="M134.15 91H13.71l-6.58-6.59V14l6.58-6.58h120.44l6.58 6.58v70.41z"/><path class="cls-10" d="M134 90.87H13.84l-6.59-6.59V14.12l6.59-6.59H134l6.59 6.59v70.16z"/><path class="cls-11" d="M133.89 90.75H14l-6.62-6.59V14.25L14 7.65h119.89l6.6 6.6v69.91z"/><path class="cls-11" d="M133.76 90.63H14.1L7.5 84V14.37l6.6-6.6h119.66l6.61 6.6V84z"/><path class="cls-11" d="M133.63 90.52H14.23L7.62 83.9V14.5l6.61-6.61h119.4l6.61 6.61v69.4z"/><path class="cls-11" d="M133.5 90.4H14.36l-6.62-6.62V14.63L14.36 8H133.5l6.62 6.62v69.16z"/><path class="cls-11" d="M133.37 90.28H14.49l-6.63-6.63V14.76l6.63-6.64h118.88l6.63 6.64v68.89z"/><path class="cls-11" d="M133.24 90.16H14.62L8 83.52V14.88l6.64-6.64h118.6l6.64 6.64v68.64z"/><path class="cls-11" d="M133.11 90H14.75l-6.64-6.61V15l6.64-6.65h118.36l6.65 6.65v68.39z"/><path class="cls-11" d="M133 89.92H14.88l-6.65-6.65V15.14l6.65-6.66H133l6.66 6.66v68.13z"/><path class="cls-11" d="M132.85 89.81H15l-6.65-6.67V15.26L15 8.6h117.85l6.66 6.66v67.88z"/><path class="cls-11" d="M132.72 89.69H15.14L8.47 83V15.39l6.67-6.67h117.58l6.67 6.67V83z"/><path d="M132.59 89.57H15.27l-6.68-6.68V15.52l6.68-6.69h117.32l6.68 6.69v67.37z" fill="#0b1e56"/><path class="cls-13" d="M132.46 89.45H15.4l-6.69-6.69V15.64L15.4 9h117.06l6.69 6.69v67.07z"/><path class="cls-13" d="M132.33 89.33H15.53l-6.69-6.7V15.77l6.69-6.7h116.8l6.7 6.7v66.86z"/><path class="cls-13" d="M132.2 89.21H15.66L9 82.51V15.9l6.7-6.71h116.5l6.71 6.71v66.61z"/><path class="cls-13" d="M132.07 89.1H15.8l-6.72-6.72V16l6.72-6.69h116.27l6.71 6.69v66.38z"/><path class="cls-13" d="M131.94 89h-116L9.2 82.25v-66.1l6.73-6.72h116l6.72 6.72v66.1z"/><path class="cls-13" d="M131.81 88.86H16.06l-6.74-6.73V16.28l6.74-6.74h115.75l6.73 6.74v65.85z"/><path class="cls-13" d="M131.68 88.74H16.19L9.44 82V16.41l6.75-6.75h115.49l6.74 6.75V82z"/><path class="cls-13" d="M131.55 88.62H16.32l-6.76-6.75V16.53l6.76-6.75h115.23l6.75 6.75v65.34z"/><path class="cls-14" d="M131.42 88.5h-115l-6.73-6.76V16.66l6.76-6.76h115l6.76 6.76v65.08z"/><path class="cls-14" d="M131.29 88.39H16.58l-6.77-6.77V16.79L16.58 10h114.71l6.76 6.77v64.85z"/><path class="cls-14" d="M131.16 88.27H16.71l-6.78-6.78V16.91l6.78-6.77h114.45l6.77 6.77v64.58z"/><path class="cls-14" d="M131 88.15H16.84l-6.79-6.79V17l6.79-6.79H131l6.81 6.79v64.36z"/><path class="cls-14" d="M130.9 88H17l-6.8-6.79V17.17l6.8-6.8h113.9l6.79 6.8v64.07z"/><path class="cls-14" d="M130.77 87.91H17.1l-6.81-6.8V17.29l6.81-6.8h113.67l6.8 6.8v63.82z"/><path class="cls-14" d="M130.64 87.79H17.23L10.42 81V17.42l6.81-6.81h113.41l6.81 6.81V81z"/><path class="cls-14" d="M130.51 87.68H17.36l-6.82-6.82V17.55l6.82-6.82h113.15l6.82 6.82v63.31z"/><path class="cls-14" d="M130.38 87.56H17.49l-6.83-6.83V17.67l6.83-6.82h112.89l6.82 6.82v63.06z"/><path class="cls-14" d="M130.25 87.44H17.62l-6.84-6.84V17.8l6.84-6.8h112.63l6.83 6.83V80.6z"/><path d="M130.12 87.32H17.75l-6.85-6.84V17.93l6.85-6.85h112.37l6.88 6.85v62.55z" fill="#0b1d54"/><path class="cls-16" d="M130 87.2H17.88L11 80.35v-62.3l6.86-6.85H130l6.85 6.85v62.3z"/><path class="cls-16" d="M129.86 87.08H18l-6.86-6.86v-62l6.86-6.9h111.86l6.86 6.86v62z"/><path class="cls-16" d="M129.73 87H18.14l-6.87-6.9V18.31l6.87-6.87h111.59l6.87 6.87V80.1z"/><path class="cls-16" d="M129.6 86.85H18.27L11.39 80V18.44l6.88-6.88H129.6l6.87 6.88V80z"/><path class="cls-16" d="M129.47 86.73H18.4l-6.89-6.89V18.56l6.89-6.88h111.07l6.88 6.88v61.28z"/><path class="cls-16" d="M129.34 86.61H18.53l-6.9-6.9v-61l6.9-6.9h110.81l6.89 6.9v61z"/><path class="cls-16" d="M129.2 86.49H18.66l-6.91-6.9V18.82l6.91-6.91H129.2l6.91 6.91v60.77z"/><path class="cls-16" d="M129.07 86.37H18.79l-6.91-6.91V18.94L18.79 12h110.28l6.93 6.94v60.52z"/><path class="cls-17" d="M128.94 86.25h-110L12 79.33V19.07l6.92-6.92h110l6.93 6.92v60.26z"/><path class="cls-17" d="M128.81 86.14H19.05l-6.93-6.93v-60l6.93-6.93h109.76l6.93 6.93v60z"/><path class="cls-17" d="M128.68 86H19.18l-6.94-6.94V19.32l6.94-6.93h109.5l6.94 6.93v59.76z"/><path class="cls-17" d="M128.55 85.9H19.31l-6.95-7V19.45l7-6.95h109.19l6.95 7V79z"/><path class="cls-17" d="M128.42 85.78h-109l-7-7v-59.2l7-7h109l7 7v59.25z"/><path class="cls-17" d="M128.29 85.66H19.57l-7-7v-59l7-7h108.72l7 7v59z"/><path class="cls-17" d="M128.16 85.54H19.7l-7-7V19.83l7-7h108.46l7 7v58.74z"/><path class="cls-17" d="M128 85.43H19.83l-7-7V20l7-7H128l7 7v58.45z"/><path class="cls-17" d="M127.9 85.31H20l-7-7V20.09l7-7h107.9l7 7v58.23z"/><path class="cls-17" d="M127.77 85.19H20.09l-7-7v-58l7-7h107.68l7 7v58z"/><path class="cls-18" d="M127.64 85.07H20.22l-7-7V20.34l7-7h107.42l7 7v57.72z"/><path class="cls-18" d="M127.51 85H20.35l-7-7V20.47l7-7h107.16l7 7v57.47z"/><path class="cls-18" d="M127.38 84.83H20.48l-7-7V20.59l7-7h106.9l7 7v57.22z"/><path class="cls-18" d="M127.25 84.72H20.61l-7-7v-57l7-7h106.64l7 7v57z"/><path class="cls-18" d="M127.12 84.6H20.74l-7-7V20.85l7-7h106.38l7 7v56.71z"/><path class="cls-18" d="M127 84.48H20.87l-7-7V21l7.05-7H127l7 7v56.43z"/><path class="cls-18" d="M126.86 84.36H21l-7.06-7.06V21.1L21 14h105.86l7.06 7.06V77.3z"/><path class="cls-18" d="M126.73 84.24H21.13l-7.07-7.06V21.23l7.07-7.07h105.6l7.07 7.07v56z"/><path class="cls-18" d="M126.6 84.12H21.26l-7.07-7.07v-55.7l7.07-7.07H126.6l7.08 7.07v55.7z"/><path class="cls-18" d="M126.47 84H21.39l-7.08-7.09V21.48l7.08-7.08h105.08l7.09 7.08v55.44z"/><path class="cls-19" d="M126.34 83.89H21.52l-7.09-7.09V21.61l7.09-7.09h104.82l7.09 7.09V76.8z"/><path class="cls-19" d="M126.21 83.77H21.65l-7.1-7.1V21.73l7.1-7.1h104.56l7.1 7.1v54.94z"/><path class="cls-19" d="M126.08 83.65H21.78l-7.11-7.11V21.86l7.11-7.11h104.3l7.11 7.11v54.68z"/><path class="cls-19" d="M126 83.53H22l-7.12-7.12V22L22 14.88h104l7.07 7.12v54.41z"/><path class="cls-19" d="M125.82 83.41H22l-7.12-7.12V22.12L22 15h103.82l7.18 7.12v54.17z"/><path class="cls-19" d="M125.69 83.3H22.17L15 76.16V22.24l7.13-7.13h103.56l7.14 7.13v53.92z"/><path class="cls-19" d="M125.56 83.18H22.3L15.16 76V22.37l7.14-7.14h103.26l7.14 7.14V76z"/><path class="cls-19" d="M125.43 83.06h-103l-7.15-7.15V22.5l7.15-7.15h103l7.15 7.15v53.41z"/><path d="M125.3 82.94H22.56l-7.16-7.16V22.62l7.16-7.16H125.3l7.16 7.16v53.16z" fill="#0c1a51"/><path class="cls-21" d="M125.17 82.82H22.69l-7.17-7.17v-52.9l7.17-7.17h102.48l7.17 7.17v52.9z"/><path class="cls-21" d="M125 82.7H22.82l-7.18-7.17V22.88l7.18-7.18H125l7.18 7.18v52.65z"/><path class="cls-21" d="M124.91 82.59H23l-7.23-7.19V23L23 15.82h102l7.1 7.18v52.4z"/><path class="cls-21" d="M124.78 82.47H23.08l-7.19-7.2V23.13l7.19-7.19h101.7l7.22 7.19v52.14z"/><path class="cls-21" d="M124.65 82.35H23.21L16 75.15V23.26l7.2-7.2h101.45l7.2 7.2v51.89z"/><path class="cls-21" d="M124.52 82.23H23.34L16.13 75V23.38l7.21-7.21h101.18l7.21 7.21V75z"/><path class="cls-21" d="M124.39 82.11H23.47l-7.22-7.22V23.51l7.22-7.22h100.92l7.22 7.22v51.38z"/><path class="cls-21" d="M124.26 82H23.6l-7.23-7.22V23.64l7.23-7.23h100.66l7.23 7.23v51.13z"/><path class="cls-21" d="M124.13 81.88H23.73l-7.23-7.24V23.77l7.23-7.24h100.4l7.24 7.24v50.87z"/><path class="cls-21" d="M124 81.76H23.86l-7.24-7.25V23.89l7.24-7.24H124l7.25 7.24v50.62z"/><path class="cls-22" d="M123.87 81.64H24l-7.25-7.26V24L24 16.77h99.88l7.24 7.23v50.38z"/><path class="cls-22" d="M123.74 81.52H24.12l-7.26-7.26V24.15l7.26-7.27h99.62l7.26 7.27v50.11z"/><path class="cls-22" d="M123.61 81.4H24.25L17 74.13V24.27L24.25 17h99.36l7.27 7.27v49.86z"/><path class="cls-22" d="M123.48 81.28h-99.1L17.1 74V24.4l7.28-7.28h99.1l7.28 7.28V74z"/><path class="cls-22" d="M123.35 81.16H24.51l-7.28-7.28V24.53l7.28-7.29h98.84l7.29 7.29v49.35z"/><path class="cls-22" d="M123.22 81.05H24.64l-7.29-7.3v-49.1l7.29-7.29h98.58l7.3 7.29v49.1z"/><path class="cls-22" d="M123.09 80.93H24.77l-7.3-7.31V24.78l7.3-7.3h98.32l7.3 7.3v48.84z"/><path class="cls-22" d="M123 80.81H24.9l-7.31-7.31V24.91l7.31-7.32H123l7.31 7.32V73.5z"/><path d="M122.83 80.69H25l-7.32-7.32V25L25 17.71h97.8l7.35 7.29v48.37z" fill="#0c194f"/><path class="cls-24" d="M122.7 80.57H25.16l-7.33-7.33V25.16l7.33-7.33h97.54l7.3 7.33v48.08z"/><path class="cls-24" d="M122.57 80.45H25.29L18 73.12V25.29L25.29 18h97.28l7.34 7.34v47.78z"/><path class="cls-24" d="M122.44 80.34h-97L18.08 73V25.42l7.34-7.35h97l7.35 7.35V73z"/><path class="cls-24" d="M122.31 80.22H25.55l-7.35-7.36V25.54l7.35-7.35h96.76l7.35 7.35v47.32z"/><path class="cls-24" d="M122.18 80.1h-96.5l-7.36-7.37V25.67l7.36-7.37h96.5l7.36 7.37v47.06z"/><path class="cls-24" d="M122.05 80H25.81l-7.37-7.37V25.8l7.37-7.38h96.24l7.37 7.38v46.81z"/><path class="cls-24" d="M121.92 79.86h-96l-7.38-7.38V25.92l7.38-7.38h96l7.38 7.38v46.56z"/><path class="cls-24" d="M121.79 79.74H26.07l-7.39-7.39v-46.3l7.39-7.39h95.72l7.39 7.39v46.3z"/><path class="cls-24" d="M121.66 79.63H26.21l-7.4-7.4V26.18l7.4-7.4h95.45l7.4 7.4v46.05z"/><path class="cls-24" d="M121.53 79.51H26.34l-7.41-7.41V26.3l7.41-7.4h95.19l7.4 7.4v45.8z"/><path class="cls-25" d="M121.4 79.39H26.47L19.05 72V26.43L26.47 19h94.93l7.41 7.42V72z"/><path class="cls-25" d="M121.27 79.27H26.6l-7.43-7.42V26.56l7.43-7.43h94.67l7.42 7.43v45.29z"/><path class="cls-25" d="M121.14 79.15H26.73l-7.44-7.43v-45l7.44-7.43h94.41l7.43 7.43v45z"/><path class="cls-25" d="M121 79H26.86l-7.45-7.44V26.81l7.45-7.44H121l7.44 7.44v44.78z"/><path class="cls-25" d="M120.88 78.92H27l-7.45-7.45V26.94L27 19.49h93.89l7.45 7.45v44.53z"/><path class="cls-25" d="M120.75 78.8H27.12l-7.46-7.46V27.06l7.46-7.45h93.63l7.46 7.45v44.28z"/><path class="cls-25" d="M120.62 78.68H27.25l-7.47-7.47v-44l7.47-7.47h93.37l7.46 7.47v44z"/><path class="cls-26" d="M120.49 78.56H27.38l-7.48-7.47V27.32l7.48-7.48h93.11l7.51 7.48v43.77z"/><path class="cls-26" d="M120.36 78.44H27.51L20 71V27.45L27.51 20h92.85l7.48 7.49V71z"/><path class="cls-27" d="M120.23 78.32H27.64l-7.5-7.49V27.57l7.5-7.49h92.59l7.49 7.49v43.26z"/><path class="cls-27" d="M120.1 78.21H27.77l-7.5-7.51v-43l7.5-7.5h92.33l7.5 7.5v43z"/><path class="cls-27" d="M120 78.09H27.9l-7.51-7.51V27.83l7.51-7.51H120l7.51 7.51v42.75z"/><path class="cls-27" d="M119.84 78H28l-7.52-7.52V28L28 20.44h91.81l7.54 7.56v42.5z"/><path class="cls-27" d="M119.71 77.85H28.16l-7.53-7.53V28.08l7.53-7.53h91.55l7.52 7.53v42.24z"/><path class="cls-27" d="M119.58 77.73H28.29l-7.54-7.53v-42l7.54-7.54h91.29l7.53 7.54v42z"/><path class="cls-27" d="M119.45 77.61h-91l-7.55-7.54V28.33l7.55-7.54h91l7.55 7.54v41.74z"/><path class="cls-27" d="M119.32 77.5H28.55L21 69.94V28.46l7.55-7.55h90.77l7.55 7.55v41.48z"/><path class="cls-27" d="M119.19 77.38H28.68l-7.56-7.56V28.59L28.68 21h90.51l7.56 7.56v41.26z"/><path class="cls-27" d="M119.06 77.26H28.81l-7.57-7.57v-41l7.57-7.56h90.25l7.56 7.56v41z"/><path class="cls-28" d="M118.93 77.14h-90l-7.58-7.58V28.84l7.58-7.58h90l7.57 7.58v40.72z"/><path class="cls-28" d="M118.79 77H29.07l-7.59-7.58V29l7.59-7.59h89.72l7.59 7.59v40.44z"/><path class="cls-28" d="M118.66 76.9H29.2l-7.6-7.59V29.1l7.6-7.6h89.46l7.6 7.6v40.21z"/><path class="cls-28" d="M118.53 76.78h-89.2l-7.61-7.6v-40l7.61-7.6h89.2l7.61 7.6v40z"/><path class="cls-28" d="M118.4 76.67H29.46l-7.61-7.62v-39.7l7.61-7.61h88.94l7.6 7.61v39.7z"/><path class="cls-28" d="M118.27 76.55H29.59L22 68.93V29.48l7.62-7.62h88.68l7.62 7.62v39.45z"/><path class="cls-29" d="M118.14 76.43H29.72l-7.63-7.63V29.6l7.63-7.6h88.42l7.63 7.63V68.8z"/><path class="cls-29" d="M118 76.31H29.85l-7.64-7.64V29.73l7.64-7.64H118l7.64 7.64v38.94z"/><path class="cls-29" d="M117.88 76.19H30l-7.65-7.64V29.86L30 22.21h87.9l7.65 7.65v38.69z"/><path class="cls-29" d="M117.75 76.07H30.11l-7.66-7.65V30l7.66-7.65h87.64l7.66 7.65v38.42z"/><path class="cls-30" d="M117.62 76H30.24l-7.66-7.67V30.11l7.66-7.66h87.38l7.67 7.66v38.18z"/><path class="cls-30" d="M117.49 75.84H30.37l-7.67-7.67V30.24l7.67-7.67h87.12l7.68 7.67v37.93z"/><path class="cls-30" d="M117.36 75.72H30.5L22.82 68V30.36l7.68-7.68h86.86l7.64 7.68V68z"/><path class="cls-30" d="M117.23 75.6h-86.6l-7.69-7.69V30.49l7.69-7.69h86.6l7.69 7.69v37.42z"/><path class="cls-30" d="M117.1 75.48H30.76l-7.7-7.69V30.62l7.7-7.7h86.34l7.7 7.7v37.17z"/><path class="cls-30" d="M117 75.36H30.89l-7.71-7.7V30.75L30.89 23H117l7.71 7.71v36.95z"/><path class="cls-30" d="M116.84 75.25H31l-7.71-7.72V30.87L31 23.16h85.82l7.72 7.71v36.66z"/><path class="cls-30" d="M116.71 75.13H31.15l-7.72-7.73V31l7.72-7.72h85.56l7.73 7.72v36.4z"/><path class="cls-30" d="M116.58 75h-85.3l-7.73-7.73V31.13l7.73-7.74h85.3l7.73 7.74v36.15z"/><path class="cls-31" d="M116.45 74.89h-85l-7.74-7.74v-35.9l7.74-7.74h85l7.74 7.74v35.9z"/><path class="cls-31" d="M116.32 74.77H31.54L23.79 67V31.38l7.75-7.75h84.78l7.75 7.75V67z"/><path class="cls-31" d="M116.19 74.65H31.67l-7.76-7.75V31.51l7.76-7.76h84.52l7.81 7.76V66.9z"/><path class="cls-31" d="M116.06 74.54H31.8L24 66.77V31.63l7.76-7.76h84.26l7.77 7.76v35.14z"/><path class="cls-31" d="M115.93 74.42h-84l-7.77-7.78V31.76L31.93 24h84l7.78 7.77v34.87z"/><path class="cls-32" d="M115.8 74.3H32.06l-7.78-7.78V31.89l7.78-7.79h83.74l7.78 7.79v34.63z"/><path class="cls-32" d="M115.67 74.18H32.19l-7.79-7.79V32l7.79-7.79h83.48l7.79 7.79v34.39z"/><path class="cls-32" d="M115.54 74.06H32.32l-7.8-7.8V32.14l7.8-7.8h83.22l7.8 7.8v34.12z"/><path class="cls-32" d="M115.41 73.94h-83l-7.81-7.8V32.27l7.81-7.81h83l7.81 7.81v33.87z"/><path class="cls-32" d="M115.28 73.83h-82.7L24.76 66V32.39l7.82-7.81h82.7l7.82 7.81V66z"/><path class="cls-33" d="M115.15 73.71H32.71l-7.82-7.83V32.52l7.82-7.82h82.44l7.85 7.82v33.36z"/><path class="cls-33" d="M115 73.59H32.84L25 65.76V32.65l7.83-7.83H115l7.83 7.83v33.11z"/><path class="cls-33" d="M114.89 73.47H33l-7.84-7.84V32.78L33 24.93h81.92l7.84 7.85v32.85z"/><path class="cls-33" d="M114.76 73.35H33.1l-7.85-7.85V32.9l7.85-7.85h81.66l7.85 7.85v32.6z"/><path class="cls-33" d="M114.63 73.23h-81.4l-7.86-7.86V33l7.86-7.86h81.4l7.86 7.86v32.37z"/><path class="cls-34" d="M6.64 0C5.36 1.32 1.27 5.35 0 6.68v6.12h1.74V6.64C3.09 5.27 5.37 3 6.64 1.74h6.82V0zM0 91.34c1.32 1.28 5.35 5.37 6.68 6.66h6.12v-1.76H6.64c-1.37-1.35-3.6-3.63-4.9-4.9v-6.82H0zM141.3 0c1.26 1.32 5.35 5.35 6.62 6.68v6.12h-1.72V6.64c-1.35-1.37-3.63-3.6-4.9-4.9h-6.82V0zM147.94 91.34c-1.32 1.27-5.35 5.36-6.68 6.63h-6.12v-1.73h6.15c1.38-1.35 3.61-3.63 4.91-4.9v-6.82h1.74z"/></svg>