<svg xmlns="http://www.w3.org/2000/svg" viewBox="0 0 147.94 76.18"><defs><style>.cls-2{fill:#2d247b}.cls-4{fill:#2c247a}.cls-5{fill:#2c237a}.cls-6{fill:#2c2379}.cls-7{fill:#2b2379}.cls-9{fill:#2b2278}.cls-10{fill:#2a2278}.cls-11{fill:#2a2277}.cls-12{fill:#292277}.cls-13{fill:#292176}.cls-14{fill:#282176}.cls-15{fill:#282175}.cls-18{fill:#272074}.cls-20{fill:#262073}.cls-21{fill:#261f73}.cls-22{fill:#261f72}.cls-23{fill:#251f72}.cls-24{fill:#251f71}.cls-26{fill:#241e71}.cls-27{fill:#241e70}.cls-28{fill:#231e70}.cls-29{fill:#231e6f}.cls-30{fill:#231d6f}.cls-31{fill:#221d6f}.cls-32{fill:#221d6e}.cls-35{fill:#211c6d}.cls-36{fill:#201c6c}.cls-39{fill:#1f1b6b}.cls-40{fill:#1f1b6a}.cls-41{fill:#1e1b6a}.cls-42{fill:#1e1a6a}.cls-43{fill:#1e1a69}.cls-44{fill:#1d1a69}.cls-45{fill:#1d1a68}.cls-47{fill:#1c1968}.cls-48{fill:#1c1967}.cls-49{fill:#1b1967}.cls-50{fill:#1b1966}.cls-51{fill:#1b1866}.cls-53{fill:#1a1865}.cls-56{fill:#191764}.cls-57{fill:#191763}.cls-58{fill:#181763}.cls-59{fill:#181662}.cls-60{fill:#171662}.cls-61{fill:#171661}.cls-62{fill:#161661}.cls-64{fill:#161560}.cls-65{fill:#151560}.cls-66{fill:#15155f}.cls-67{fill:#15145f}.cls-69{fill:#14145e}.cls-70{fill:#c79dfb}</style></defs><path d="M141.54 74.89H6.32L.93 69.5V6.62l5.39-5.39h135.22l5.39 5.39V69.5z" stroke="#526a9b" stroke-miterlimit="10" fill="#2d247b"/><path class="cls-2" d="M141.41 74.79H6.48l-5.4-5.39V6.72l5.4-5.4h134.93l5.4 5.4V69.4z"/><path class="cls-2" d="M141.28 74.69H6.63l-5.41-5.4V6.81l5.41-5.4h134.65l5.41 5.4v62.48z"/><path class="cls-2" d="M141.16 74.59H6.78l-5.41-5.41V6.91L6.78 1.5h134.38l5.41 5.41v62.27z"/><path d="M141 74.49H6.93l-5.42-5.41V7l5.42-5.41H141L146.44 7v62.08z" fill="#2d247a"/><path class="cls-4" d="M140.9 74.39H7.08L1.66 69V7.11l5.42-5.43H140.9l5.42 5.43V69z"/><path class="cls-4" d="M140.77 74.29H7.23L1.8 68.87V7.2l5.43-5.43h133.54l5.43 5.43v61.67z"/><path class="cls-5" d="M140.65 74.19H7.38L2 68.76V7.3l5.38-5.43h133.27l5.43 5.43v61.46z"/><path class="cls-5" d="M140.52 74.09H7.53l-5.44-5.44V7.4L7.53 2h133L146 7.4v61.25z"/><path class="cls-5" d="M140.39 74H7.68l-5.44-5.45V7.49l5.44-5.44h132.71l5.45 5.44v61.06z"/><path class="cls-5" d="M140.26 73.89H7.83l-5.45-5.45V7.59l5.45-5.45h132.43l5.46 5.45v60.85z"/><path class="cls-6" d="M140.14 73.79H8l-5.47-5.45V7.69L8 2.23h132.14l5.45 5.46v60.65z"/><path class="cls-6" d="M140 73.69H8.14l-5.47-5.46V7.78l5.47-5.46H140l5.46 5.46v60.45z"/><path class="cls-7" d="M139.88 73.59H8.29l-5.47-5.47V7.88l5.47-5.47h131.59l5.47 5.47v60.24z"/><path class="cls-7" d="M139.75 73.49H8.44L3 68V8l5.44-5.5h131.31l5.48 5.5v60z"/><path class="cls-7" d="M139.63 73.39H8.59l-5.48-5.48V8.08l5.48-5.49h131l5.48 5.49v59.83z"/><path class="cls-7" d="M139.5 73.29H8.74l-5.49-5.48V8.17l5.49-5.48H139.5l5.5 5.48v59.64z"/><path class="cls-7" d="M139.37 73.19H8.89L3.4 67.7V8.27l5.49-5.49h130.48l5.49 5.49V67.7z"/><path d="M139.24 73.09H9l-5.5-5.5V8.37L9 2.87h130.2l5.5 5.5v59.22z" fill="#2b2378"/><path class="cls-9" d="M139.12 73H9.19l-5.5-5.5v-59L9.19 3h129.93l5.5 5.5v59z"/><path class="cls-9" d="M139 72.89H9.34l-5.51-5.51V8.56l5.51-5.51H139l5.51 5.51v58.82z"/><path class="cls-10" d="M138.86 72.79H9.49L4 67.28V8.66l5.49-5.52h129.37l5.52 5.52v58.62z"/><path class="cls-10" d="M138.74 72.69H9.64l-5.52-5.52V8.75l5.52-5.52h129.1l5.52 5.52v58.42z"/><path class="cls-10" d="M138.61 72.59H9.8l-5.53-5.53V8.85L9.8 3.32h128.81l5.52 5.53v58.21z"/><path class="cls-10" d="M138.48 72.49H10L4.41 67V9L10 3.42h128.48L144 9v58z"/><path class="cls-11" d="M138.35 72.39H10.1l-5.54-5.54V9.05l5.54-5.54h128.25l5.54 5.54v57.8z"/><path class="cls-11" d="M138.23 72.29h-128L4.7 66.75V9.14l5.55-5.54h128l5.54 5.54v57.61z"/><path class="cls-11" d="M138.1 72.19H10.4l-5.55-5.55V9.24l5.55-5.55h127.7l5.55 5.55v57.4z"/><path class="cls-11" d="M138 72.09H10.55L5 66.53V9.34l5.56-5.56H138l5.56 5.56v57.19z"/><path class="cls-12" d="M137.84 72H10.7l-5.56-5.57v-57l5.56-5.56h127.14l5.57 5.56v57z"/><path class="cls-12" d="M137.72 71.89H10.85l-5.57-5.57V9.53L10.85 4h126.87l5.56 5.57v56.75z"/><path class="cls-12" d="M137.59 71.79H11l-5.57-5.57V9.63L11 4.05h126.59l5.57 5.58v56.59z"/><path class="cls-13" d="M137.46 71.69H11.15l-5.58-5.58V9.72l5.58-5.58h126.31L143 9.72v56.39z"/><path class="cls-13" d="M137.33 71.59H11.3L5.72 66V9.82l5.58-5.58h126l5.59 5.58V66z"/><path class="cls-13" d="M137.21 71.49H11.46L5.87 65.9v-56l5.59-5.59h125.75l5.59 5.59v56z"/><path class="cls-13" d="M137.08 71.39H11.61L6 65.79V10l5.6-5.59h125.48l5.6 5.59v55.79z"/><path class="cls-13" d="M137 71.29H11.76l-5.6-5.6V10.11l5.6-5.6H137l5.6 5.6v55.58z"/><path class="cls-14" d="M136.82 71.19H11.91L6.3 65.58V10.21l5.61-5.61h124.91l5.61 5.61v55.37z"/><path class="cls-14" d="M136.7 71.09H12.06l-5.61-5.61V10.31l5.61-5.62H136.7l5.61 5.62v55.17z"/><path class="cls-15" d="M136.57 71H12.21l-5.62-5.63v-55l5.62-5.62h124.36l5.62 5.62v55z"/><path class="cls-15" d="M136.44 70.89H12.36l-5.62-5.63V10.5l5.62-5.63h124.08l5.63 5.63v54.76z"/><path class="cls-15" d="M136.31 70.79H12.51l-5.63-5.63V10.6L12.51 5h123.8l5.69 5.6v54.56z"/><path class="cls-15" d="M136.19 70.69H12.66L7 65.05V10.69l5.63-5.63h123.56l5.63 5.63v54.36z"/><path class="cls-15" d="M136.06 70.59H12.81L7.17 65V10.79l5.64-5.64h123.25l5.64 5.64V65z"/><path d="M135.93 70.49H13l-5.68-5.65V10.89L13 5.24h123l5.65 5.65v54z" fill="#282075"/><path d="M135.8 70.39H13.12l-5.66-5.66V11l5.66-5.65H135.8l5.66 5.65v53.73z" fill="#272075"/><path class="cls-18" d="M135.68 70.29H13.27l-5.66-5.66V11.08l5.66-5.66h122.41l5.66 5.66v53.55z"/><path class="cls-18" d="M135.55 70.19H13.42l-5.67-5.67V11.18l5.67-5.67h122.13l5.67 5.67v53.34z"/><path class="cls-18" d="M135.42 70.09H13.57L7.9 64.42V11.28l5.67-5.68h121.85l5.67 5.68v53.14z"/><path class="cls-18" d="M135.3 70H13.72L8 64.31V11.37l5.68-5.68H135.3l5.7 5.68v52.94z"/><path class="cls-18" d="M135.17 69.89H13.87L8.19 64.2V11.47l5.68-5.68h121.3l5.68 5.68V64.2z"/><path class="cls-18" d="M135 69.79H14L8.33 64.1V11.57L14 5.88h121l5.69 5.69V64.1z"/><path d="M134.91 69.69H14.17L8.48 64V11.66L14.17 6h120.74l5.7 5.69V64z" fill="#272073"/><path class="cls-20" d="M134.79 69.59H14.32l-5.7-5.7V11.76l5.7-5.7h120.47l5.7 5.7v52.13z"/><path class="cls-20" d="M134.66 69.49H14.47l-5.7-5.71V11.86l5.7-5.71h120.19l5.71 5.71v51.92z"/><path class="cls-20" d="M134.53 69.39H14.63l-5.72-5.72V12l5.72-5.71h119.9l5.71 5.71v51.67z"/><path class="cls-20" d="M134.4 69.29H14.78l-5.72-5.72V12.05l5.72-5.72H134.4l5.72 5.72v51.52z"/><path class="cls-21" d="M134.28 69.19H14.93L9.2 63.46V12.15l5.73-5.73h119.35l5.72 5.73v51.31z"/><path class="cls-21" d="M134.15 69.09H15.08l-5.73-5.73V12.25l5.73-5.73h119.07l5.73 5.73v51.11z"/><path class="cls-22" d="M134 69H15.23l-5.74-5.75V12.34l5.74-5.73H134l5.74 5.73v50.91z"/><path class="cls-22" d="M133.89 68.89H15.38l-5.74-5.75v-50.7l5.74-5.74h118.51l5.75 5.74v50.7z"/><path class="cls-23" d="M133.77 68.79H15.53L9.78 63V12.54l5.75-5.75h118.24l5.74 5.75V63z"/><path class="cls-23" d="M133.64 68.69h-118l-5.71-5.76v-50.3l5.75-5.75h118l5.75 5.75v50.3z"/><path class="cls-23" d="M133.51 68.59H15.83l-5.76-5.76v-50.1L15.83 7h117.68l5.76 5.76v50.1z"/><path class="cls-23" d="M133.38 68.49H16l-5.76-5.77V12.83L16 7.06h117.4l5.77 5.77v49.89z"/><path class="cls-23" d="M133.26 68.39H16.13l-5.77-5.78V12.92l5.77-5.77h117.13l5.74 5.77v49.69z"/><path class="cls-24" d="M133.13 68.29H16.29l-5.78-5.78V13l5.78-5.78h116.84l5.78 5.78v49.51z"/><path class="cls-24" d="M133 68.19H16.44l-5.79-5.79V13.12l5.79-5.78H133l5.78 5.78V62.4z"/><path class="cls-24" d="M132.87 68.09H16.59L10.8 62.3V13.22l5.79-5.79h116.28l5.79 5.79V62.3z"/><path d="M132.75 68h-116l-5.8-5.8V13.31l5.8-5.79h116l5.79 5.79v48.88z" fill="#241f71"/><path class="cls-26" d="M132.62 67.89H16.89l-5.8-5.8V13.41l5.8-5.8h115.73l5.8 5.8v48.68z"/><path class="cls-26" d="M132.49 67.78H17L11.23 62V13.51L17 7.7h115.49l5.81 5.81V62z"/><path class="cls-26" d="M132.36 67.68H17.19l-5.81-5.81V13.6l5.81-5.81h115.17l5.82 5.81v48.27z"/><path class="cls-27" d="M132.24 67.58H17.34l-5.82-5.81V13.7l5.82-5.82h114.9l5.81 5.82v48.07z"/><path class="cls-27" d="M132.11 67.48H17.49l-5.82-5.82V13.8L17.49 8h114.62l5.82 5.83v47.83z"/><path class="cls-27" d="M132 67.38H17.64l-5.83-5.82V13.89l5.83-5.82H132l5.83 5.82v47.67z"/><path class="cls-27" d="M131.86 67.28H17.79L12 61.45V14l5.83-5.83h114.03l5.83 5.83v47.45z"/><path class="cls-28" d="M131.73 67.18H18l-5.9-5.84V14.09L18 8.25h113.73l5.84 5.84v47.25z"/><path class="cls-28" d="M131.6 67.08H18.1l-5.85-5.84V14.19l5.85-5.85h113.5l5.85 5.85v47.05z"/><path class="cls-28" d="M131.47 67H18.25l-5.86-5.85V14.28l5.86-5.85h113.22l5.86 5.85v46.85z"/><path class="cls-29" d="M131.35 66.88H18.4L12.54 61V14.38l5.86-5.86h113l5.85 5.86V61z"/><path class="cls-29" d="M131.22 66.78H18.55l-5.86-5.86V14.48l5.86-5.87h112.67l5.86 5.87v46.44z"/><path class="cls-30" d="M131.09 66.68H18.7l-5.87-5.87V14.57L18.7 8.7h112.39l5.91 5.87v46.24z"/><path class="cls-30" d="M131 66.58H18.85L13 60.71v-46l5.87-5.88H131l5.88 5.88v46z"/><path class="cls-30" d="M130.84 66.48H19l-5.88-5.88V14.77L19 8.89h111.84l5.88 5.88V60.6z"/><path class="cls-31" d="M130.71 66.38H19.15l-5.88-5.88V14.86L19.15 9h111.56l5.89 5.88V60.5z"/><path class="cls-31" d="M130.58 66.28H19.3l-5.89-5.89V15l5.89-5.93h111.28l5.89 5.93v45.39z"/><path class="cls-32" d="M130.45 66.18h-111l-5.89-5.9V15.06l5.89-5.9h111l5.9 5.9v45.22z"/><path class="cls-32" d="M130.33 66.08H19.61l-5.91-5.9v-45l5.91-5.9h110.72l5.9 5.9v45z"/><path class="cls-32" d="M130.2 66H19.76l-5.91-5.91V15.25l5.91-5.91H130.2l5.91 5.91v44.82z"/><path class="cls-32" d="M130.07 65.88H19.91L14 60V15.35l5.92-5.92h110.15l5.93 5.92V60z"/><path class="cls-32" d="M129.94 65.78H20.06l-5.92-5.92V15.45l5.92-5.93h109.88l5.93 5.93v44.41z"/><path class="cls-32" d="M129.82 65.68H20.21l-5.93-5.93V15.54l5.93-5.93h109.61l5.92 5.93v44.21z"/><path d="M129.69 65.58H20.36l-5.93-5.93v-44l5.93-5.93h109.33l5.93 5.93v44z" fill="#211d6e"/><path d="M129.56 65.48h-109l-5.94-5.94v-43.8l5.89-5.94h109.05l5.94 5.94v43.8z" fill="#211d6d"/><path class="cls-35" d="M129.43 65.38H20.66l-5.94-5.94V15.83l5.94-5.94h108.77l5.95 5.94v43.61z"/><path class="cls-35" d="M129.31 65.28H20.81l-5.95-6V15.93L20.81 10h108.5l5.95 5.95v43.4z"/><path class="cls-35" d="M129.18 65.18H21l-6-6V16l6-6h108.18l6 6v43.22z"/><path class="cls-35" d="M129.05 65.08H21.11l-6-6v-43l6-6h107.94l6 6v43z"/><path class="cls-35" d="M128.92 65H21.27l-6-6V16.22l6-6h107.65l6 6V59z"/><path class="cls-35" d="M128.8 64.88H21.42l-6-6V16.32l6-6H128.8l6 6v42.59z"/><path class="cls-36" d="M128.67 64.78H21.57l-6-6V16.42l6-6h107.1l6 6V58.8z"/><path class="cls-36" d="M128.54 64.68H21.72l-6-6V16.51l6-6h106.82l6 6v42.18z"/><path class="cls-36" d="M128.41 64.58H21.87l-6-6v-42l6-6h106.54l6 6v42z"/><path class="cls-36" d="M128.29 64.48H22l-6-6V16.71l6-6h106.29l6 6v41.77z"/><path class="cls-36" d="M128.16 64.38h-106l-6-6V16.8l6-6h106l6 6v41.58z"/><path class="cls-36" d="M128 64.28H22.32l-6-6V16.9l6-6H128l6 6v41.37z"/><path d="M127.91 64.18H22.47l-6-6V17l6-6h105.44l6 6v41.17z" fill="#201b6c"/><path d="M127.78 64.08H22.62l-6-6v-41l6-6h105.16l6 6v41z" fill="#201b6b"/><path class="cls-39" d="M127.65 64H22.77l-6-6V17.19l6-6h104.88l6 6V58z"/><path class="cls-39" d="M127.52 63.88H22.93l-6-6V17.29l6-6h104.59l6 6v40.56z"/><path class="cls-39" d="M127.4 63.78H23.08l-6-6V17.39l6-6H127.4l6 6v40.35z"/><path class="cls-39" d="M127.27 63.68h-104l-6.05-6v-40.2l6.05-6h104l6 6v40.16z"/><path class="cls-39" d="M127.14 63.58H23.38l-6.05-6v-40l6.05-6h103.76l6 6v40z"/><path class="cls-39" d="M127 63.48H23.53l-6.06-6.06V17.68l6.06-6.06H127l6.06 6.06v39.74z"/><path class="cls-40" d="M126.89 63.38H23.68l-6.06-6.06V17.77l6.06-6.06h103.21l6.11 6.06v39.55z"/><path class="cls-40" d="M126.76 63.28H23.83l-6.07-6.07V17.87l6.07-6.07h102.93l6.07 6.07v39.34z"/><path class="cls-41" d="M126.63 63.18H24l-6.07-6.07V18L24 11.89h102.63L132.7 18v39.11z"/><path class="cls-41" d="M126.5 63.08H24.13L18.05 57V18.06L24.13 12H126.5l6.08 6.07V57z"/><path class="cls-41" d="M126.38 63H24.28l-6.08-6.11V18.16l6.08-6.08h102.1l6.08 6.08v38.73z"/><path class="cls-42" d="M126.25 62.88H24.43l-6.09-6.09V18.26l6.09-6.09h101.82l6.09 6.09v38.53z"/><path class="cls-42" d="M126.12 62.78H24.59l-6.1-6.1V18.36l6.1-6.1h101.53l6.1 6.1v38.32z"/><path class="cls-43" d="M126 62.68H24.74l-6.11-6.1V18.45l6.11-6.1H126l6.11 6.1v38.13z"/><path class="cls-43" d="M125.87 62.58h-101l-6.11-6.11V18.55l6.11-6.11h101l6.1 6.11v37.92z"/><path class="cls-43" d="M125.74 62.48H25l-6.12-6.12V18.65L25 12.53h100.7l6.11 6.12v37.71z"/><path class="cls-44" d="M125.61 62.38H25.19l-6.12-6.12V18.74l6.12-6.12h100.42l6.12 6.12v37.52z"/><path class="cls-44" d="M125.48 62.28H25.34l-6.13-6.13V18.84l6.13-6.13h100.14l6.13 6.13v37.31z"/><path class="cls-44" d="M125.36 62.18H25.49l-6.13-6.13V18.94l6.13-6.13h99.87l6.13 6.13v37.11z"/><path class="cls-44" d="M125.23 62.08H25.64l-6.13-6.14V19l6.13-6.13h99.59l6.14 6.13v36.94z"/><path class="cls-45" d="M125.1 62H25.79l-6.14-6.15V19.13L25.79 13h99.31l6.15 6.14v36.7z"/><path class="cls-45" d="M125 61.88H26l-6.2-6.15v-36.5l6.14-6.15h99l6.15 6.15v36.5z"/><path class="cls-45" d="M124.85 61.78H26.1l-6.16-6.16V19.33l6.16-6.16h98.75l6.15 6.16v36.29z"/><path d="M124.72 61.68H26.25l-6.16-6.16v-36.1l6.16-6.16h98.47l6.16 6.16v36.1z" fill="#1d1968"/><path class="cls-47" d="M124.59 61.58H26.4l-6.17-6.17V19.52l6.17-6.17h98.19l6.17 6.17v35.89z"/><path class="cls-47" d="M124.47 61.48H26.55l-6.17-6.18V19.62l6.17-6.18h97.92l6.17 6.18V55.3z"/><path class="cls-47" d="M124.34 61.38H26.7l-6.18-6.18V19.71l6.18-6.17h97.64l6.18 6.17V55.2z"/><path class="cls-48" d="M124.21 61.28H26.85l-6.18-6.19V19.81l6.18-6.18h97.36l6.18 6.18v35.28z"/><path class="cls-48" d="M124.08 61.18H27L20.81 55V19.91L27 13.72h97.08l6.19 6.19V55z"/><path class="cls-48" d="M124 61.08H27.15L21 54.88V20l6.19-6.19H124l6.15 6.19v34.88z"/><path class="cls-48" d="M123.83 61H27.3l-6.2-6.21V20.1l6.2-6.2h96.53l6.2 6.2v34.67z"/><path class="cls-48" d="M123.7 60.88H27.45l-6.2-6.21V20.2l6.2-6.2h96.25l6.21 6.21v34.46z"/><path class="cls-49" d="M123.57 60.78h-96l-6.21-6.22V20.29l6.21-6.21h96l6.22 6.21v34.27z"/><path class="cls-49" d="M123.45 60.68H27.76l-6.22-6.22V20.39l6.22-6.22h95.69l6.21 6.22v34.07z"/><path class="cls-50" d="M123.32 60.58H27.91l-6.23-6.23V20.49l6.23-6.23h95.41l6.22 6.23v33.86z"/><path class="cls-50" d="M123.19 60.48H28.06l-6.23-6.23V20.59l6.23-6.23h95.13l6.23 6.23v33.66z"/><path class="cls-51" d="M123.06 60.38H28.21L22 54.14V20.68l6.24-6.23h94.85l6.24 6.23v33.46z"/><path class="cls-51" d="M122.94 60.28H28.36L22.12 54V20.78l6.24-6.24h94.58l6.24 6.24V54z"/><path class="cls-51" d="M122.81 60.18h-94.3l-6.25-6.25v-33l6.25-6.25h94.3l6.25 6.25v33z"/><path class="cls-51" d="M122.68 60.07h-94l-6.25-6.25V21l6.25-6.25h94l6.25 6.25v32.82z"/><path d="M122.55 60H28.81l-6.26-6.25V21.07l6.26-6.26h93.74l6.26 6.26v32.65z" fill="#1a1866"/><path class="cls-53" d="M122.43 59.87H29l-6.3-6.26V21.17L29 14.9h93.47l6.26 6.27v32.44z"/><path class="cls-53" d="M122.3 59.77H29.11l-6.27-6.27V21.26L29.11 15h93.19l6.27 6.27V53.5z"/><path class="cls-53" d="M122.17 59.67H29.26L23 53.4v-32l6.27-6.27h92.91l6.28 6.27v32z"/><path class="cls-53" d="M122 59.57H29.42l-6.29-6.28V21.46l6.29-6.28H122l6.29 6.28v31.83z"/><path class="cls-53" d="M121.92 59.47H29.57l-6.29-6.28V21.56l6.29-6.29h92.35l6.29 6.29v31.63z"/><path class="cls-53" d="M121.79 59.37H29.72l-6.3-6.29V21.65l6.3-6.29h92.07l6.29 6.29v31.43z"/><path d="M121.66 59.27H29.87L23.57 53V21.75l6.3-6.3h91.79l6.3 6.3V53z" fill="#1a1864"/><path d="M121.53 59.17H30l-6.31-6.3v-31L30 15.54h91.51l6.31 6.31v31z" fill="#191864"/><path class="cls-56" d="M121.41 59.07H30.17l-6.31-6.31V21.94l6.31-6.31h91.24l6.31 6.31v30.82z"/><path class="cls-56" d="M121.28 59h-91L24 52.66V22l6.32-6.32h91L127.6 22v30.66z"/><path class="cls-56" d="M121.15 58.87H30.47l-6.32-6.32V22.14l6.32-6.33h90.68l6.33 6.33v30.41z"/><path class="cls-56" d="M121 58.77H30.62l-6.33-6.33V22.23l6.33-6.32H121l6.32 6.32v30.21z"/><path class="cls-56" d="M120.9 58.67H30.77l-6.33-6.33v-30L30.77 16h90.13l6.33 6.33v30z"/><path class="cls-57" d="M120.77 58.57H30.92l-6.34-6.34v-29.8l6.34-6.34h89.85l6.34 6.34v29.8z"/><path class="cls-57" d="M120.64 58.47H31.08l-6.35-6.34v-29.6l6.35-6.35h89.56l6.36 6.35v29.6z"/><path class="cls-58" d="M120.52 58.37H31.23L24.87 52V22.62l6.36-6.35h89.29l6.35 6.35V52z"/><path class="cls-58" d="M120.39 58.27h-89L25 51.91V22.72l6.36-6.36h89l6.36 6.36v29.19z"/><path class="cls-58" d="M120.26 58.17H31.53l-6.37-6.36v-29l6.37-6.37h88.73l6.36 6.37v29z"/><path class="cls-58" d="M120.13 58.07H31.68l-6.37-6.37V22.91l6.37-6.37h88.45l6.37 6.37V51.7z"/><path class="cls-58" d="M120 58H31.83l-6.38-6.4V23l6.38-6.38H120l6.38 6.38v28.6z"/><path class="cls-59" d="M119.88 57.87H32l-6.4-6.38V23.11l6.4-6.38h87.9l6.38 6.38v28.38z"/><path class="cls-59" d="M119.75 57.77H32.13l-6.39-6.39V23.2l6.39-6.38h87.62l6.39 6.38v28.18z"/><path class="cls-59" d="M119.62 57.67H32.28l-6.39-6.39v-28l6.39-6.39h87.34L126 23.3v28z"/><path class="cls-60" d="M119.5 57.57H32.43L26 51.17V23.4l6.43-6.4h87.07l6.39 6.4v27.77z"/><path class="cls-60" d="M119.37 57.47H32.58l-6.4-6.4V23.5l6.4-6.41h86.79l6.4 6.41v27.57z"/><path class="cls-60" d="M119.24 57.37h-86.5L26.33 51V23.59l6.41-6.41h86.5l6.41 6.41V51z"/><path class="cls-60" d="M119.11 57.27H32.89l-6.42-6.41V23.69l6.42-6.42h86.22l6.42 6.42v27.17z"/><path class="cls-61" d="M119 57.17H33l-6.42-6.42v-27L33 17.36h86l6.42 6.43v27z"/><path class="cls-61" d="M118.86 57.07H33.19l-6.43-6.43V23.88l6.43-6.42h85.67l6.43 6.42v26.76z"/><path class="cls-61" d="M118.73 57H33.34l-6.43-6.43V24l6.43-6.43h85.39l6.44 6.43v26.54z"/><path class="cls-61" d="M118.6 56.87H33.49l-6.44-6.44V24.08l6.44-6.44h85.11l6.4 6.44v26.35z"/><path class="cls-62" d="M118.48 56.77H33.64l-6.44-6.44V24.17l6.44-6.44h84.84l6.44 6.44v26.16z"/><path class="cls-62" d="M118.35 56.67H33.79l-6.45-6.45V24.27l6.45-6.45h84.56l6.45 6.45v26z"/><path d="M118.22 56.57H33.94l-6.45-6.46V24.37l6.45-6.46h84.28l6.46 6.46v25.74z" fill="#161561"/><path class="cls-64" d="M118.09 56.47h-84L27.63 50V24.47L34.09 18h84l6.47 6.47V50z"/><path class="cls-64" d="M118 56.37H34.24l-6.46-6.47V24.56l6.46-6.47H118l6.47 6.47V49.9z"/><path class="cls-64" d="M117.84 56.27H34.4l-6.48-6.47V24.66l6.48-6.48h83.44l6.47 6.48V49.8z"/><path class="cls-64" d="M117.71 56.17H34.55l-6.48-6.48V24.76l6.48-6.48h83.16l6.48 6.48v24.93z"/><path class="cls-64" d="M117.58 56.07H34.7l-6.49-6.49V24.85l6.49-6.48h82.88l6.49 6.48v24.73z"/><path class="cls-65" d="M117.46 56H34.85l-6.49-6.49V25l6.49-6.49h82.61L124 25v24.48z"/><path class="cls-65" d="M117.33 55.87H35l-6.5-6.5V25.05l6.5-6.5h82.33l6.5 6.5v24.32z"/><path class="cls-66" d="M117.2 55.77H35.15l-6.5-6.5V25.14l6.5-6.5h82.05l6.51 6.5v24.13z"/><path class="cls-66" d="M117.08 55.67H35.3l-6.51-6.51V25.24l6.51-6.51h81.78l6.5 6.51v23.92z"/><path class="cls-66" d="M117 55.57H35.45l-6.51-6.52V25.34l6.51-6.52H117l6.51 6.52v23.71z"/><path class="cls-66" d="M116.82 55.47H35.6L29.08 49V25.43l6.52-6.52h81.22l6.52 6.52V49z"/><path class="cls-67" d="M116.69 55.37H35.75l-6.52-6.53V25.53L35.75 19h80.94l6.53 6.52v23.32z"/><path class="cls-67" d="M116.57 55.27H35.9l-6.53-6.53V25.63l6.53-6.53h80.67l6.53 6.53v23.11z"/><path d="M116.44 55.17H36.06l-6.54-6.54v-22.9l6.54-6.54h80.38l6.56 6.54v22.9z" fill="#14145f"/><path class="cls-69" d="M116.31 55.07h-80.1l-6.55-6.55v-22.7l6.55-6.54h80.1l6.54 6.54v22.7z"/><path class="cls-69" d="M116.18 55H36.36l-6.55-6.55V25.92l6.55-6.55h79.82l6.55 6.55v22.5z"/><path class="cls-69" d="M116.06 54.87H36.51L30 48.31V26l6.56-6.56h79.55l6.5 6.56v22.31z"/><path class="cls-69" d="M115.93 54.77H36.66l-6.56-6.56v-22.1l6.56-6.56h79.27l6.56 6.56v22.1z"/><path class="cls-70" d="M6.64 0C5.36 1.32 1.27 5.35 0 6.68v6.12h1.74V6.64C3.09 5.27 5.37 3 6.64 1.74h6.82V0zM0 69.54c1.32 1.27 5.35 5.36 6.68 6.63h6.12v-1.73H6.64c-1.37-1.35-3.6-3.63-4.9-4.9v-6.81H0zM141.3 0c1.26 1.32 5.35 5.35 6.62 6.68v6.12h-1.72V6.64c-1.35-1.37-3.63-3.6-4.9-4.9h-6.82V0zM147.94 69.54c-1.32 1.27-5.35 5.36-6.68 6.63h-6.12v-1.73h6.15c1.38-1.35 3.61-3.63 4.91-4.9v-6.81h1.74z"/></svg>