<svg xmlns="http://www.w3.org/2000/svg" viewBox="0 0 147.94 76.18"><defs><style>.cls-2{fill:#0b215d}.cls-3{fill:#0b215c}.cls-4{fill:#0b205c}.cls-5{fill:#0b205b}.cls-6{fill:#0b205a}.cls-7{fill:#0b1f5a}.cls-8{fill:#0b1f59}.cls-9{fill:#0b1f58}.cls-10{fill:#0b1e58}.cls-11{fill:#0b1e57}.cls-13{fill:#0b1d56}.cls-14{fill:#0b1d55}.cls-16{fill:#0b1c54}.cls-17{fill:#0b1c53}.cls-18{fill:#0c1b52}.cls-19{fill:#0c1b51}.cls-21{fill:#0c1a50}.cls-22{fill:#0c1a4f}.cls-24{fill:#0c194e}.cls-25{fill:#0c194d}.cls-26{fill:#0c184d}.cls-27{fill:#0c184c}.cls-28{fill:#0c184b}.cls-29{fill:#0c174b}.cls-30{fill:#0c174a}.cls-31{fill:#0c1749}.cls-32{fill:#0c1649}.cls-33{fill:#0c1648}.cls-34{fill:#00fcf9}</style></defs><path d="M141.54 74.89H6.32L.93 69.5V6.62l5.39-5.39h135.22l5.39 5.39V69.5z" stroke="#4574d6" stroke-miterlimit="10" fill="#0b215d"/><path class="cls-2" d="M141.41 74.8H6.45l-5.4-5.4V6.72l5.4-5.4h135l5.4 5.4V69.4z"/><path class="cls-2" d="M141.28 74.71H6.58L1.17 69.3V6.82l5.41-5.41h134.7l5.41 5.41V69.3z"/><path class="cls-2" d="M141.15 74.62H6.71L1.3 69.21V6.92L6.71 1.5h134.44l5.42 5.42v62.29z"/><path class="cls-2" d="M141 74.53H6.84l-5.42-5.42V7l5.42-5.41H141L146.44 7v62.11z"/><path class="cls-3" d="M140.89 74.44H7L1.54 69V7.11L7 1.68h133.89l5.43 5.43V69z"/><path class="cls-3" d="M140.76 74.35H7.1l-5.44-5.44V7.21L7.1 1.77h133.66l5.44 5.44v61.7z"/><path class="cls-3" d="M140.63 74.26H7.23l-5.45-5.45V7.31l5.45-5.44h133.4l5.45 5.44v61.5z"/><path class="cls-3" d="M140.51 74.16H7.36L1.9 68.71V7.41L7.36 2h133.15L146 7.41v61.3z"/><path class="cls-3" d="M140.38 74.07H7.49L2 68.61V7.51l5.49-5.46h132.89l5.46 5.46v61.1z"/><path class="cls-4" d="M140.25 74H7.62l-5.47-5.49V7.61l5.47-5.47h132.63l5.47 5.47v60.9z"/><path class="cls-4" d="M140.12 73.89H7.74l-5.47-5.47V7.71l5.47-5.48h132.38l5.47 5.48v60.71z"/><path class="cls-4" d="M140 73.8H7.87l-5.48-5.48V7.8l5.48-5.48H140l5.48 5.48v60.52z"/><path class="cls-4" d="M139.86 73.71H8l-5.49-5.49V7.9L8 2.41h131.86l5.49 5.49v60.32z"/><path class="cls-4" d="M139.73 73.62H8.13l-5.5-5.5V8l5.5-5.5h131.6l5.5 5.5v60.12z"/><path class="cls-5" d="M139.6 73.53H8.26L2.76 68V8.1l5.5-5.51H139.6l5.51 5.51V68z"/><path class="cls-5" d="M139.47 73.44H8.39l-5.51-5.52V8.2l5.51-5.51h131.08L145 8.2v59.72z"/><path class="cls-5" d="M139.34 73.34H8.52L3 67.82V8.3l5.52-5.52h130.82l5.52 5.52v59.52z"/><path class="cls-5" d="M139.21 73.25H8.65l-5.53-5.52V8.4l5.53-5.53h130.56l5.53 5.53v59.33z"/><path class="cls-5" d="M139.09 73.16H8.78l-5.54-5.53V8.49L8.78 3h130.31l5.53 5.53v59.1z"/><path class="cls-5" d="M139 73.07H8.91l-5.55-5.54V8.59l5.55-5.54H139l5.54 5.54v58.94z"/><path class="cls-5" d="M138.83 73H9l-5.52-5.57V8.69L9 3.14h129.83l5.55 5.55v58.74z"/><path class="cls-5" d="M138.7 72.89H9.16l-5.55-5.56V8.79l5.55-5.56H138.7l5.56 5.56v58.54z"/><path class="cls-5" d="M138.57 72.8H9.29l-5.56-5.57V8.89l5.56-5.57h129.28l5.56 5.57v58.34z"/><path class="cls-6" d="M138.44 72.71H9.42l-5.57-5.58V9l5.57-5.58h129L144 9v58.13z"/><path class="cls-6" d="M138.31 72.61H9.55L4 67V9.09l5.55-5.58h128.76l5.58 5.58V67z"/><path class="cls-6" d="M138.18 72.52H9.68l-5.59-5.58V9.19L9.68 3.6h128.5l5.59 5.59v57.75z"/><path class="cls-6" d="M138.05 72.43H9.81l-5.6-5.59V9.28l5.6-5.59h128.24l5.6 5.59v57.56z"/><path class="cls-7" d="M137.92 72.34H9.94l-5.6-5.6V9.38l5.6-5.6h128l5.61 5.6v57.36z"/><path class="cls-7" d="M137.79 72.25H10.07l-5.61-5.61V9.48l5.61-5.61h127.72l5.62 5.61v57.16z"/><path class="cls-7" d="M137.67 72.16H10.2l-5.62-5.62v-57L10.2 4h127.47l5.61 5.62v57z"/><path class="cls-7" d="M137.54 72.07H10.33L4.7 66.44V9.68l5.63-5.63h127.21l5.62 5.63v56.76z"/><path class="cls-7" d="M137.41 72H10.46l-5.64-5.66V9.78l5.64-5.64h127L143 9.78v56.56z"/><path class="cls-7" d="M137.28 71.89H10.58l-5.64-5.64V9.88l5.64-5.64h126.7l5.64 5.64v56.37z"/><path class="cls-8" d="M137.15 71.79H10.71l-5.64-5.64V10l5.64-5.64h126.44L142.8 10v56.15z"/><path class="cls-8" d="M137 71.7H10.84l-5.65-5.65v-56l5.65-5.65H137l5.66 5.65v56z"/><path class="cls-8" d="M136.89 71.61H11L5.31 66V10.17L11 4.51h125.89l5.66 5.66V66z"/><path class="cls-8" d="M136.76 71.52H11.1l-5.67-5.67V10.27L11.1 4.6h125.66l5.67 5.67v55.58z"/><path class="cls-8" d="M136.63 71.43H11.23l-5.68-5.68V10.37l5.68-5.68h125.4l5.68 5.68v55.38z"/><path class="cls-8" d="M136.5 71.34H11.36l-5.69-5.69V10.47l5.69-5.69H136.5l5.69 5.69v55.18z"/><path class="cls-8" d="M136.38 71.25H11.49l-5.69-5.7v-55l5.69-5.7h124.89l5.69 5.7v55z"/><path class="cls-8" d="M136.25 71.16H11.62l-5.7-5.7V10.67L11.62 5h124.63l5.7 5.7v54.76z"/><path class="cls-8" d="M136.12 71.06H11.75L6 65.36v-54.6l5.71-5.7h124.41l5.7 5.7v54.6z"/><path class="cls-8" d="M136 71H11.87l-5.71-5.74v-54.4l5.71-5.71H136l5.71 5.71v54.4z"/><path class="cls-9" d="M135.86 70.88H12l-5.72-5.72V11L12 5.24h123.86l5.72 5.76v54.2z"/><path class="cls-9" d="M135.73 70.79H12.13L6.4 65.06v-54l5.73-5.73h123.6l5.73 5.73v54z"/><path class="cls-10" d="M135.6 70.7H12.26L6.52 65V11.16l5.74-5.74H135.6l5.74 5.74V65z"/><path class="cls-10" d="M135.47 70.61H12.39l-5.74-5.75v-53.6l5.74-5.75h123.08l5.75 5.75v53.6z"/><path class="cls-10" d="M135.34 70.52H12.52l-5.75-5.75V11.36l5.75-5.76h122.82l5.75 5.76v53.41z"/><path class="cls-10" d="M135.21 70.43H12.65l-5.76-5.76V11.45l5.76-5.76h122.56l5.79 5.76v53.22z"/><path class="cls-10" d="M135.08 70.34H12.78L7 64.57v-53l5.77-5.76h122.3l5.77 5.76v53z"/><path class="cls-10" d="M135 70.24H13l-5.87-5.77V11.65l5.78-5.77H135l5.77 5.77v52.82z"/><path class="cls-10" d="M134.83 70.15H13l-5.75-5.78V11.75L13 6h121.83l5.78 5.78v52.59z"/><path class="cls-11" d="M134.7 70.06H13.17l-5.79-5.79V11.85l5.79-5.79H134.7l5.79 5.79v52.42z"/><path class="cls-11" d="M134.57 70H13.29L7.5 64.17V12l5.79-5.8h121.28l5.8 5.8v52.17z"/><path class="cls-11" d="M134.44 69.88h-121l-5.8-5.8v-52l5.8-5.81h121l5.8 5.81v52z"/><path class="cls-11" d="M134.31 69.79H13.55L7.74 64V12.14l5.81-5.81h120.76l5.81 5.81V64z"/><path class="cls-11" d="M134.18 69.7H13.68l-5.82-5.82V12.24l5.82-5.82h120.5l5.82 5.82v51.64z"/><path class="cls-11" d="M134.05 69.61H13.81L8 63.78V12.34l5.83-5.82h120.22l5.83 5.82v51.44z"/><path class="cls-11" d="M133.92 69.52h-120l-5.81-5.84V12.44l5.83-5.83h120l5.84 5.83v51.24z"/><path class="cls-11" d="M133.79 69.42H14.07l-5.84-5.84v-51l5.84-5.88h119.72l5.85 5.84v51z"/><path class="cls-11" d="M133.66 69.33H14.2l-5.85-5.85V12.64l5.85-5.85h119.46l5.85 5.85v50.84z"/><path class="cls-11" d="M133.54 69.24H14.33l-5.86-5.86V12.74l5.86-5.86h119.21l5.85 5.86v50.64z"/><path d="M133.41 69.15H14.46l-5.87-5.86V12.84L14.46 7h119l5.86 5.87v50.42z" fill="#0b1e56"/><path class="cls-13" d="M133.28 69.06H14.59l-5.88-5.87V12.93l5.88-5.87h118.69l5.87 5.87v50.26z"/><path class="cls-13" d="M133.15 69H14.71l-5.87-5.91V13l5.87-5.88h118.44L139 13v50.09z"/><path class="cls-13" d="M133 68.88H14.84L9 63V13.13l5.88-5.89H133l5.89 5.89V63z"/><path class="cls-13" d="M132.89 68.79H15l-5.89-5.9V13.23L15 7.34h117.89l5.89 5.89v49.66z"/><path class="cls-13" d="M132.76 68.69H15.1l-5.9-5.9V13.33l5.9-5.9h117.66l5.9 5.9v49.46z"/><path class="cls-13" d="M132.63 68.6H15.23l-5.91-5.91V13.43l5.91-5.91h117.4l5.91 5.91v49.26z"/><path class="cls-13" d="M132.5 68.51H15.36L9.44 62.6V13.53l5.92-5.92H132.5l5.92 5.92V62.6z"/><path class="cls-13" d="M132.37 68.42H15.49L9.56 62.5V13.62l5.93-5.92h116.88l5.93 5.92V62.5z"/><path class="cls-14" d="M132.24 68.33H15.62L9.69 62.4V13.72l5.93-5.93h116.62l5.94 5.93V62.4z"/><path class="cls-14" d="M132.12 68.24H15.75L9.81 62.3V13.82l5.94-5.94h116.37l5.93 5.94V62.3z"/><path class="cls-14" d="M132 68.15H15.88l-6-6V13.92l6-5.95H132l5.94 6V62.2z"/><path class="cls-14" d="M131.86 68.06H16l-6-6V14l6-5.95h115.86l5.95 5.95v48.1z"/><path class="cls-14" d="M131.73 68H16.13l-6-6V14.12l6-6h115.6l6 6V62z"/><path class="cls-14" d="M131.6 67.87H16.26l-6-6V14.22l6-6H131.6l6 6V61.9z"/><path class="cls-14" d="M131.47 67.78H16.39l-6-6V14.32l6-6h115.08l6 6v47.49z"/><path class="cls-14" d="M131.34 67.69H16.52l-6-6V14.41l6-6h114.82l6 6v47.3z"/><path class="cls-14" d="M131.21 67.6H16.65l-6-6V14.51l6-6h114.56l6 6v47.1z"/><path class="cls-14" d="M131.08 67.51H16.78l-6-6v-46.9l6-6h114.3l6 6v46.9z"/><path d="M131 67.42H17l-6-6V14.71l6-6h114l6 6v46.7z" fill="#0b1d54"/><path class="cls-16" d="M130.82 67.33H17l-6-6V14.81l6-6h113.82l6 6v46.5z"/><path class="cls-16" d="M130.7 67.24H17.17l-6-6V14.91l6-6H130.7l6 6v46.3z"/><path class="cls-16" d="M130.57 67.14H17.3l-6-6V15l6-6h113.27l6 6v46.12z"/><path class="cls-16" d="M130.44 67.05h-113l-6-6V15.1l6-6h113l6 6V61z"/><path class="cls-16" d="M130.31 67H17.55l-6-6V15.2l6-6h112.76l6 6v45.72z"/><path class="cls-16" d="M130.18 66.87H17.68l-6-6.05V15.3l6-6.05h112.5l6 6.05v45.52z"/><path class="cls-16" d="M130.05 66.78H17.81l-6.06-6.06V15.4l6.06-6.06h112.24l6.06 6.06v45.32z"/><path class="cls-16" d="M129.92 66.69h-112l-6.06-6.07V15.5l6.06-6.07h112L136 15.5v45.12z"/><path class="cls-17" d="M129.79 66.6H18.07L12 60.52V15.6l6.07-6.08h111.72l6.08 6.08v44.92z"/><path class="cls-17" d="M129.66 66.51H18.2l-6.08-6.08V15.7l6.08-6.09h111.46l6.08 6.09v44.73z"/><path class="cls-17" d="M129.53 66.42H18.33l-6.09-6.09V15.8l6.09-6.09h111.2l6.09 6.09v44.53z"/><path class="cls-17" d="M129.4 66.32H18.46l-6.1-6.09V15.89l6.1-6.09H129.4l6.1 6.09v44.34z"/><path class="cls-17" d="M129.28 66.23H18.59l-6.11-6.1V16l6.11-6.1h110.69l6.1 6.1v44.13z"/><path class="cls-17" d="M129.15 66.14H18.72L12.6 60V16.09L18.72 10h110.43l6.11 6.11V60z"/><path class="cls-17" d="M129 66.05H18.85l-6.12-6.12V16.19l6.12-6.12H129l6.12 6.12v43.74z"/><path class="cls-17" d="M128.89 66H19l-6.12-6.13V16.29L19 10.16h109.89l6.11 6.13v43.54z"/><path class="cls-17" d="M128.76 65.87H19.1L13 59.73V16.39l6.13-6.14h109.63l6.13 6.14v43.34z"/><path class="cls-17" d="M128.63 65.78H19.23l-6.14-6.14V16.49l6.14-6.15h109.4l6.14 6.15v43.15z"/><path class="cls-18" d="M128.5 65.69H19.36l-6.15-6.15v-43l6.15-6.14H128.5l6.15 6.14v43z"/><path class="cls-18" d="M128.37 65.59H19.49l-6.16-6.15V16.68l6.16-6.15h108.88l6.16 6.15v42.76z"/><path class="cls-18" d="M128.24 65.5H19.62l-6.16-6.16V16.78l6.16-6.16h108.62l6.17 6.16v42.56z"/><path class="cls-18" d="M128.11 65.41H19.75l-6.17-6.17V16.88l6.17-6.17h108.36l6.18 6.17v42.36z"/><path class="cls-18" d="M128 65.32H19.88l-6.18-6.18V17l6.18-6.18H128l6.16 6.18v42.14z"/><path class="cls-18" d="M127.86 65.23H20L13.82 59V17L20 10.89h107.86l6.14 6.19V59z"/><path class="cls-18" d="M127.73 65.14H20.14L13.94 59V17.18l6.2-6.2h107.59l6.19 6.2V59z"/><path class="cls-18" d="M127.6 65.05H20.27l-6.21-6.2V17.27l6.21-6.2H127.6l6.2 6.2v41.58z"/><path class="cls-18" d="M127.47 65H20.39l-6.2-6.21V17.37l6.2-6.21h107.08l6.21 6.21v41.38z"/><path class="cls-18" d="M127.34 64.87H20.52l-6.21-6.22V17.47l6.21-6.21h106.82l6.22 6.21v41.18z"/><path class="cls-19" d="M127.21 64.77H20.65l-6.22-6.22v-41l6.22-6.22h106.56l6.22 6.22v41z"/><path class="cls-19" d="M127.08 64.68H20.78l-6.23-6.23V17.67l6.23-6.23h106.3l6.23 6.23v40.78z"/><path class="cls-19" d="M127 64.59H21l-6.24-6.24V17.77L21 11.53h106l6.24 6.24v40.58z"/><path class="cls-19" d="M126.82 64.5H21l-6.25-6.25V17.87L21 11.62h105.82l6.25 6.25v40.38z"/><path class="cls-19" d="M126.69 64.41H21.17l-6.25-6.25V18l6.25-6.26h105.52L133 18v40.16z"/><path class="cls-19" d="M126.56 64.32H21.3L15 58.06v-40l6.3-6.26h105.26l6.27 6.26v40z"/><path class="cls-19" d="M126.44 64.23h-105L15.16 58V18.16l6.27-6.27h105l6.26 6.27V58z"/><path class="cls-19" d="M126.31 64.14H21.56l-6.28-6.28v-39.6L21.56 12h104.75l6.27 6.27v39.6z"/><path d="M126.18 64H21.69l-6.29-6.24v-39.4l6.29-6.28h104.49l6.28 6.28v39.4z" fill="#0c1a51"/><path class="cls-21" d="M126.05 64H21.81l-6.29-6.29V18.46l6.29-6.29h104.24l6.29 6.29v39.2z"/><path class="cls-21" d="M125.92 63.86h-104l-6.3-6.3v-39l6.3-6.3h104l6.3 6.3v39z"/><path class="cls-21" d="M125.79 63.77H22.07l-6.3-6.3V18.66l6.3-6.31h103.72l6.31 6.31v38.81z"/><path class="cls-21" d="M125.66 63.68H22.2l-6.31-6.31V18.75l6.31-6.31h103.46l6.34 6.31v38.62z"/><path class="cls-21" d="M125.53 63.59H22.33L16 57.27V18.85l6.32-6.32h103.2l6.32 6.32v38.42z"/><path class="cls-21" d="M125.4 63.5H22.46l-6.33-6.33V19l6.33-6.33H125.4l6.33 6.33v38.17z"/><path class="cls-21" d="M125.27 63.41H22.59l-6.34-6.34v-38l6.34-6.34h102.68l6.34 6.34v38z"/><path class="cls-21" d="M125.14 63.32H22.72L16.37 57V19.15l6.35-6.34h102.42l6.35 6.34V57z"/><path class="cls-21" d="M125 63.22H22.85l-6.35-6.35V19.25l6.35-6.35H125l6.35 6.35v37.62z"/><path class="cls-21" d="M124.89 63.13H23l-6.36-6.36V19.35L23 13h101.89l6.36 6.36v37.41z"/><path class="cls-22" d="M124.76 63H23.11l-6.37-6.36V19.45l6.37-6.37h101.65l6.36 6.37v37.23z"/><path class="cls-22" d="M124.63 63H23.23l-6.37-6.37v-37l6.37-6.37h101.4l6.37 6.28v37z"/><path class="cls-22" d="M124.5 62.86H23.36L17 56.48V19.64l6.38-6.38H124.5l6.38 6.38v36.84z"/><path class="cls-22" d="M124.37 62.77H23.49l-6.39-6.39V19.74l6.39-6.39h100.88l6.39 6.39v36.64z"/><path class="cls-22" d="M124.24 62.68H23.62l-6.39-6.4V19.84l6.39-6.4h100.62l6.4 6.4v36.44z"/><path class="cls-22" d="M124.11 62.59H23.75l-6.4-6.41V19.94l6.4-6.4h100.36l6.41 6.4v36.24z"/><path class="cls-22" d="M124 62.5H23.88l-6.41-6.42V20l6.41-6.41H124l6.39 6.41v36z"/><path class="cls-22" d="M123.85 62.4H24L17.59 56V20.14L24 13.72h99.84l6.42 6.42V56z"/><path d="M123.73 62.31H24.14l-6.43-6.42V20.23l6.43-6.42h99.59l6.42 6.42v35.66z" fill="#0c194f"/><path class="cls-24" d="M123.6 62.22H24.27l-6.44-6.43V20.33l6.44-6.43h99.33l6.4 6.43v35.46z"/><path class="cls-24" d="M123.47 62.13H24.4L18 55.69V20.43L24.4 14h99.07l6.44 6.44v35.25z"/><path class="cls-24" d="M123.34 62H24.52l-6.44-6.45V20.53l6.44-6.45h98.82l6.45 6.45v35.06z"/><path class="cls-24" d="M123.21 62H24.65l-6.45-6.51V20.63l6.45-6.46h98.56l6.45 6.46v34.86z"/><path class="cls-24" d="M123.08 61.86h-98.3l-6.46-6.47V20.73l6.46-6.47h98.3l6.46 6.47v34.66z"/><path class="cls-24" d="M123 61.77H25l-6.56-6.47V20.83l6.47-6.47h98l6.47 6.47V55.3z"/><path class="cls-24" d="M122.82 61.67H25l-6.44-6.47V20.92L25 14.45h97.78l6.48 6.47V55.2z"/><path class="cls-24" d="M122.69 61.58H25.17l-6.49-6.48V21l6.49-6.48h97.52l6.49 6.48v34.1z"/><path class="cls-24" d="M122.56 61.49H25.3L18.81 55V21.12l6.49-6.49h97.26l6.5 6.49V55z"/><path class="cls-24" d="M122.43 61.4h-97l-6.5-6.5V21.22l6.5-6.5h97l6.5 6.5V54.9z"/><path class="cls-25" d="M122.31 61.31H25.56l-6.51-6.51V21.32l6.51-6.51h96.75l6.5 6.51V54.8z"/><path class="cls-25" d="M122.18 61.22H25.69l-6.52-6.52V21.42l6.52-6.52h96.49l6.51 6.52V54.7z"/><path class="cls-25" d="M122.05 61.13H25.82l-6.53-6.53V21.52L25.82 15h96.23l6.52 6.53V54.6z"/><path class="cls-25" d="M121.92 61h-96l-6.53-6.53V21.62l6.53-6.53h96l6.53 6.53v32.89z"/><path class="cls-25" d="M121.79 61H26.07l-6.53-6.54V21.71l6.53-6.53h95.72l6.54 6.53v32.7z"/><path class="cls-25" d="M121.66 60.85H26.2l-6.54-6.54v-32.5l6.54-6.54h95.46l6.55 6.54v32.5z"/><path class="cls-25" d="M121.53 60.76h-95.2l-6.55-6.55v-32.3l6.55-6.55h95.2l6.55 6.55v32.3z"/><path class="cls-26" d="M121.4 60.67H26.46l-6.56-6.56V22l6.56-6.56h94.94L128 22v32.1z"/><path class="cls-26" d="M121.27 60.58H26.59L20 54V22.11l6.57-6.57h94.68l6.57 6.57V54z"/><path class="cls-27" d="M121.14 60.49H26.72l-6.58-6.58v-31.7l6.58-6.58h94.42l6.58 6.58v31.7z"/><path class="cls-27" d="M121 60.4H26.85l-6.58-6.58V22.31l6.58-6.59H121l6.59 6.59v31.51z"/><path class="cls-27" d="M120.89 60.31H27l-6.59-6.59V22.4L27 15.81h93.91l6.59 6.59v31.32z"/><path class="cls-27" d="M120.76 60.22H27.11l-6.6-6.6V22.5l6.6-6.59h93.65l6.59 6.59v31.12z"/><path class="cls-27" d="M120.63 60.12H27.24l-6.61-6.6V22.6l6.61-6.6h93.39l6.6 6.6v30.92z"/><path class="cls-27" d="M120.5 60H27.36l-6.61-6.61V22.7l6.61-6.61h93.14l6.61 6.61v30.72z"/><path class="cls-27" d="M120.37 59.94H27.49l-6.62-6.62V22.8l6.62-6.62h92.88L127 22.8v30.52z"/><path class="cls-27" d="M120.24 59.85H27.62L21 53.22V22.9l6.62-6.63h92.62l6.63 6.63v30.32z"/><path class="cls-27" d="M120.11 59.76H27.75l-6.63-6.64V23l6.63-6.64h92.36l6.64 6.64v30.12z"/><path class="cls-27" d="M120 59.67H27.88L21.24 53V23.1l6.64-6.65H120l6.64 6.65V53z"/><path class="cls-28" d="M119.85 59.58H28l-6.65-6.65V23.19L28 16.54h91.84l6.65 6.65v29.74z"/><path class="cls-28" d="M119.72 59.49H28.14l-6.66-6.66V23.29l6.66-6.66h91.58l6.66 6.66v29.54z"/><path class="cls-28" d="M119.59 59.4H28.27l-6.67-6.67V23.39l6.67-6.66h91.32l6.67 6.66v29.34z"/><path class="cls-28" d="M119.47 59.3H28.4l-6.68-6.67V23.49l6.68-6.67h91.07l6.67 6.67v29.14z"/><path class="cls-28" d="M119.34 59.21H28.53l-6.68-6.68V23.59l6.68-6.68h90.81l6.66 6.68v28.94z"/><path class="cls-28" d="M119.21 59.12H28.66L22 52.43V23.69L28.66 17h90.55l6.68 6.69v28.74z"/><path class="cls-29" d="M119.08 59h-90.3l-6.69-6.69V23.79l6.69-6.7h90.3l6.69 6.7v28.55z"/><path class="cls-29" d="M119 58.94H29l-6.7-6.7V23.88l6.7-6.7h90l6.7 6.7v28.36z"/><path class="cls-29" d="M118.82 58.85H29l-6.71-6.71V24L29 17.27h89.78l6.75 6.73v28.14z"/><path class="cls-29" d="M118.69 58.76H29.17L22.45 52V24l6.72-6.72h89.52l6.72 6.72v28z"/><path class="cls-30" d="M118.56 58.67H29.3l-6.72-6.73V24.18l6.72-6.72h89.26l6.73 6.72v27.76z"/><path class="cls-30" d="M118.43 58.57h-89l-6.73-6.73V24.28l6.73-6.73h89l6.74 6.73v27.56z"/><path class="cls-30" d="M118.3 58.48H29.56l-6.74-6.74V24.38l6.74-6.74h88.74l6.7 6.74v27.36z"/><path class="cls-30" d="M118.17 58.39H29.69l-6.75-6.74V24.48l6.75-6.75h88.48l6.75 6.75v27.17z"/><path class="cls-30" d="M118.05 58.3H29.82l-6.76-6.75v-27l6.76-6.76h88.23l6.75 6.76v27z"/><path class="cls-30" d="M117.92 58.21H30l-6.77-6.76V24.67L30 17.91h88l6.76 6.76v26.78z"/><path class="cls-30" d="M117.79 58.12H30.08l-6.77-6.77V24.77L30.08 18h87.71l6.77 6.77v26.58z"/><path class="cls-30" d="M117.66 58H30.2l-6.77-6.78V24.87l6.77-6.78h87.46l6.78 6.78v26.38z"/><path class="cls-30" d="M117.53 57.94h-87.2l-6.78-6.79V25l6.78-6.79h87.2l6.78 6.79v26.15z"/><path class="cls-31" d="M117.4 57.85H30.46l-6.79-6.8v-26l6.79-6.79h86.94l6.79 6.79v26z"/><path class="cls-31" d="M117.27 57.75H30.59L23.79 51V25.17l6.8-6.8h86.68l6.8 6.8V51z"/><path class="cls-31" d="M117.14 57.66H30.72l-6.81-6.8V25.27l6.81-6.81h86.42l6.86 6.81v25.59z"/><path class="cls-31" d="M117 57.57H30.85L24 50.76v-25.4l6.81-6.81H117l6.82 6.81v25.4z"/><path class="cls-31" d="M116.88 57.48H31l-6.82-6.82v-25.2L31 18.64h85.9l6.83 6.82v25.2z"/><path class="cls-32" d="M116.75 57.39H31.11l-6.83-6.83v-25l6.83-6.83h85.64l6.83 6.83v25z"/><path class="cls-32" d="M116.63 57.3H31.24l-6.84-6.84v-24.8l6.84-6.84h85.39l6.83 6.84v24.8z"/><path class="cls-32" d="M116.5 57.21H31.37l-6.85-6.85v-24.6l6.85-6.85h85.13l6.84 6.85v24.6z"/><path class="cls-32" d="M116.37 57.12H31.5l-6.86-6.86v-24.4L31.5 19h84.87l6.85 6.85v24.4z"/><path class="cls-32" d="M116.24 57H31.62l-6.86-6.85V26l6.86-6.86h84.62L123.1 26v24.17z"/><path class="cls-33" d="M116.11 56.93H31.75l-6.86-6.86v-24l6.86-6.86h84.36l6.89 6.84v24z"/><path class="cls-33" d="M116 56.84H31.88L25 50V26.15l6.87-6.87H116l6.87 6.87V50z"/><path class="cls-33" d="M115.85 56.75H32l-6.88-6.88V26.25L32 19.37h83.84l6.88 6.88v23.62z"/><path class="cls-33" d="M115.72 56.66H32.14l-6.89-6.89V26.35l6.89-6.89h83.58l6.89 6.89v23.42z"/><path class="cls-33" d="M115.59 56.57H32.27l-6.9-6.9V26.45l6.9-6.9h83.32l6.9 6.9v23.22z"/><path class="cls-34" d="M6.64 0C5.36 1.32 1.27 5.35 0 6.68v6.12h1.74V6.64C3.09 5.27 5.37 3 6.64 1.74h6.82V0zM0 69.54c1.32 1.27 5.35 5.36 6.68 6.63h6.12v-1.73H6.64c-1.37-1.35-3.6-3.63-4.9-4.9v-6.81H0zM141.3 0c1.26 1.32 5.35 5.35 6.62 6.68v6.12h-1.72V6.64c-1.35-1.37-3.63-3.6-4.9-4.9h-6.82V0zM147.94 69.54c-1.32 1.27-5.35 5.36-6.68 6.63h-6.12v-1.73h6.15c1.38-1.35 3.61-3.63 4.91-4.9v-6.81h1.74z"/></svg>